<svg width="40" height="40" viewBox="0 0 40 40" fill="none" xmlns="http://www.w3.org/2000/svg">
<g clip-path="url(#clip0_485_224)">
<g filter="url(#filter0_d_485_224)">
<path d="M32.5 40H7.5C3.35754 40 0 36.6425 0 32.5V7.5C0 3.35754 3.35754 0 7.5 0H32.5C36.6425 0 40 3.35754 40 7.5V32.5C40 36.6425 36.6425 40 32.5 40Z" fill="#2D76F7" fill-opacity="0.1" shape-rendering="crispEdges"/>
</g>
<path d="M28.992 23.3447V11.1146C28.9912 10.9476 28.9523 10.783 28.8783 10.6328C28.8042 10.4827 28.6968 10.351 28.5641 10.2474C28.4333 10.1429 28.2805 10.0687 28.1168 10.0302C27.9531 9.99175 27.7828 9.98998 27.6184 10.0251L17.4852 12.2487C17.235 12.3044 17.0116 12.4428 16.8519 12.6409C16.6922 12.839 16.6058 13.0851 16.607 13.3383V22.6109C15.8383 22.2525 14.9728 22.15 14.1401 22.3186C13.3075 22.4872 12.5526 22.9178 11.9888 23.546C11.4251 24.1741 11.0827 24.9658 11.0132 25.8023C10.9436 26.6388 11.1507 27.4751 11.6032 28.1856C12.0557 28.896 12.7293 29.4425 13.523 29.7429C14.3166 30.0433 15.1875 30.0815 16.005 29.8518C16.8226 29.622 17.5426 29.1367 18.0571 28.4687C18.5716 27.8006 18.8529 26.9858 18.8588 26.1464C18.8704 25.9539 18.8704 25.7608 18.8588 25.5683V14.2277L26.7402 12.5044V20.3872C25.9711 20.0287 25.105 19.9262 24.2719 20.0952C23.4389 20.2642 22.6838 20.6955 22.1202 21.3243C21.5565 21.9532 21.2147 22.7457 21.146 23.5827C21.0773 24.4198 21.2855 25.2563 21.7393 25.9665C22.1931 26.6768 22.868 27.2225 23.6626 27.5217C24.4573 27.8209 25.3288 27.8575 26.1463 27.6258C26.9637 27.3942 27.6831 26.907 28.1962 26.2373C28.7093 25.5675 28.9886 24.7515 28.992 23.9117C29.0027 23.7228 29.0027 23.5335 28.992 23.3447V23.3447Z" fill="#4D6AED"/>
</g>
<defs>
<filter id="filter0_d_485_224" x="-100" y="-98" width="240" height="240" filterUnits="userSpaceOnUse" color-interpolation-filters="sRGB">
<feFlood flood-opacity="0" result="BackgroundImageFix"/>
<feColorMatrix in="SourceAlpha" type="matrix" values="0 0 0 0 0 0 0 0 0 0 0 0 0 0 0 0 0 0 127 0" result="hardAlpha"/>
<feOffset dy="2"/>
<feGaussianBlur stdDeviation="50"/>
<feComposite in2="hardAlpha" operator="out"/>
<feColorMatrix type="matrix" values="0 0 0 0 0 0 0 0 0 0 0 0 0 0 0 0 0 0 0.1 0"/>
<feBlend mode="normal" in2="BackgroundImageFix" result="effect1_dropShadow_485_224"/>
<feBlend mode="normal" in="SourceGraphic" in2="effect1_dropShadow_485_224" result="shape"/>
</filter>
<clipPath id="clip0_485_224">
<rect width="40" height="40" fill="white"/>
</clipPath>
</defs>
</svg>
