<svg width="40" height="40" viewBox="0 0 40 40" fill="none" xmlns="http://www.w3.org/2000/svg">
<g clip-path="url(#clip0_485_223)">
<g filter="url(#filter0_d_485_223)">
<path d="M32.5 40H7.5C3.35754 40 0 36.6425 0 32.5V7.5C0 3.35754 3.35754 0 7.5 0H32.5C36.6425 0 40 3.35754 40 7.5V32.5C40 36.6425 36.6425 40 32.5 40Z" fill="#2D76F7" fill-opacity="0.1" shape-rendering="crispEdges"/>
</g>
<path d="M29 30H11V27.7143C11 26.1988 11.5926 24.7453 12.6475 23.6737C13.7024 22.602 15.1332 22 16.625 22H23.375C24.8668 22 26.2976 22.602 27.3525 23.6737C28.4074 24.7453 29 26.1988 29 27.7143V30Z" fill="#4D6AED"/>
<circle cx="20" cy="15" r="5" fill="#4D6AED"/>
</g>
<defs>
<filter id="filter0_d_485_223" x="-100" y="-98" width="240" height="240" filterUnits="userSpaceOnUse" color-interpolation-filters="sRGB">
<feFlood flood-opacity="0" result="BackgroundImageFix"/>
<feColorMatrix in="SourceAlpha" type="matrix" values="0 0 0 0 0 0 0 0 0 0 0 0 0 0 0 0 0 0 127 0" result="hardAlpha"/>
<feOffset dy="2"/>
<feGaussianBlur stdDeviation="50"/>
<feComposite in2="hardAlpha" operator="out"/>
<feColorMatrix type="matrix" values="0 0 0 0 0 0 0 0 0 0 0 0 0 0 0 0 0 0 0.1 0"/>
<feBlend mode="normal" in2="BackgroundImageFix" result="effect1_dropShadow_485_223"/>
<feBlend mode="normal" in="SourceGraphic" in2="effect1_dropShadow_485_223" result="shape"/>
</filter>
<clipPath id="clip0_485_223">
<rect width="40" height="40" fill="white"/>
</clipPath>
</defs>
</svg>
