<svg width="40" height="40" viewBox="0 0 40 40" fill="none" xmlns="http://www.w3.org/2000/svg">
<g clip-path="url(#clip0_485_225)">
<g filter="url(#filter0_d_485_225)">
<path d="M32.5 40H7.5C3.35754 40 0 36.6425 0 32.5V7.5C0 3.35754 3.35754 0 7.5 0H32.5C36.6425 0 40 3.35754 40 7.5V32.5C40 36.6425 36.6425 40 32.5 40Z" fill="#2D76F7" fill-opacity="0.1" shape-rendering="crispEdges"/>
</g>
<path d="M14.455 26.5897L10 30V11.9744C10 11.7159 10.1054 11.4681 10.2929 11.2854C10.4804 11.1027 10.7348 11 11 11H29C29.2652 11 29.5196 11.1027 29.7071 11.2854C29.8946 11.4681 30 11.7159 30 11.9744V25.6154C30 25.8738 29.8946 26.1216 29.7071 26.3044C29.5196 26.4871 29.2652 26.5897 29 26.5897H14.455ZM15 17.8205V19.7692H17V17.8205H15ZM19 17.8205V19.7692H21V17.8205H19ZM23 17.8205V19.7692H25V17.8205H23Z" fill="#4D6AED"/>
</g>
<defs>
<filter id="filter0_d_485_225" x="-100" y="-98" width="240" height="240" filterUnits="userSpaceOnUse" color-interpolation-filters="sRGB">
<feFlood flood-opacity="0" result="BackgroundImageFix"/>
<feColorMatrix in="SourceAlpha" type="matrix" values="0 0 0 0 0 0 0 0 0 0 0 0 0 0 0 0 0 0 127 0" result="hardAlpha"/>
<feOffset dy="2"/>
<feGaussianBlur stdDeviation="50"/>
<feComposite in2="hardAlpha" operator="out"/>
<feColorMatrix type="matrix" values="0 0 0 0 0 0 0 0 0 0 0 0 0 0 0 0 0 0 0.1 0"/>
<feBlend mode="normal" in2="BackgroundImageFix" result="effect1_dropShadow_485_225"/>
<feBlend mode="normal" in="SourceGraphic" in2="effect1_dropShadow_485_225" result="shape"/>
</filter>
<clipPath id="clip0_485_225">
<rect width="40" height="40" fill="white"/>
</clipPath>
</defs>
</svg>
